<?xml version="1.0" encoding="UTF-8"?><svg id="Layer_1" xmlns="http://www.w3.org/2000/svg" viewBox="0 0 500 471.17"><defs><style>.cls-1{fill:#e8be20;stroke-width:0px;}</style></defs><path class="cls-1" d="m180.97,295.59c-20.78,1.68-41.22.19-61.4,3.12-19.39,2.81-33.98,13.11-43.11,30.53-7.64,14.59-12.94,30.22-19.34,45.36-8.02,18.98-15.91,38.01-23.86,57.02-.26.62-.6,1.21-1.06,2.14-16.92-18.55-27.22-39.81-30.89-64.23-3.3-21.92-.39-42.98,8.35-63.4,16.43-38.38,32.52-76.9,48.82-115.34,9.15-21.57,17.86-43.34,27.78-64.55,17.82-38.11,47.47-62.62,88.13-73.68,4.38-1.19,8.8-2.21,13.37-3.35.69,2.56-1.15,4.13-1.89,5.93-14.31,34.5-28.72,68.96-43.13,103.42-8.89,21.26-17.8,42.51-26.71,63.75-.68,1.63-1.85,3.53,1.35,3.43,19.74-.57,39.61,1.16,59.19-2.54,21.31-4.03,36.39-16.37,44.82-36.17,16.48-38.68,31.79-77.87,48.91-116.26,15.99-35.87,43.66-58.89,82.33-67.82,52.41-12.1,108,13.73,133.61,63.03,24.56,47.26,15.57,104.71-21.96,142.32-19.61,19.65-43.03,31.33-70.37,35.62-9.71,1.52-19.25,3.93-28.5,9.85,1.44-6.56,4.17-11.6,6.36-16.78,11.64-27.39,23.6-54.64,35.14-82.07,3.71-8.82,7.32-17.7,10.86-26.59,7.67-19.27-4.78-44.76-27-50.77-23.12-6.25-45.08,5.71-54.7,29.32-11.72,28.75-23.81,57.35-35.72,86.02-20.91,50.32-41.65,100.71-62.81,150.92-8.6,20.4-16.2,41.29-27.45,60.5-14.6,24.93-34.9,43.71-60.96,56.13-13.17,6.28-27.31,9.27-41.77,10.69-2.38.23-1.32-1.18-.81-2.31,2.19-4.81,4.34-9.64,6.47-14.48,10.37-23.51,20.55-47.1,30.44-70.82,12.15-29.15,24.75-58.12,37.48-87.94Z"/></svg>